HIERARCHY
ROOT Hips
{
	OFFSET -0.001795 -0.223333 0.028219
	CHANNELS 6 Xposition Yposition Zposition Zrotation Yrotation Xrotation 
	JOINT LeftUpLeg
	{
		OFFSET 0.069520 -0.091406 -0.006815
		CHANNELS 3 Zrotation Yrotation Xrotation
		JOINT LeftLeg
		{
			OFFSET 0.034277 -0.375199 -0.004496
			CHANNELS 3 Zrotation Yrotation Xrotation
			JOINT LeftFoot
			{
				OFFSET -0.013596 -0.397961 -0.043693
				CHANNELS 3 Zrotation Yrotation Xrotation
				JOINT LeftToe
				{
					OFFSET 0.026358 -0.055791 0.119288
					CHANNELS 3 Zrotation Yrotation Xrotation
					End Site
					{
						OFFSET 0.000000 0.000000 0.000000
					}
				}
			}
		}
	}
	JOINT RightUpLeg
	{
		OFFSET -0.067670 -0.090522 -0.004320
		CHANNELS 3 Zrotation Yrotation Xrotation
		JOINT RightLeg
		{
			OFFSET -0.038290 -0.382569 -0.008850
			CHANNELS 3 Zrotation Yrotation Xrotation
			JOINT RightFoot
			{
				OFFSET 0.015774 -0.398415 -0.042312
				CHANNELS 3 Zrotation Yrotation Xrotation
				JOINT RightToe
				{
					OFFSET -0.025372 -0.048144 0.123348
					CHANNELS 3 Zrotation Yrotation Xrotation
					End Site
					{
						OFFSET 0.000000 0.000000 0.000000
					}
				}
			}
		}
	}
	JOINT Spine
	{
		OFFSET -0.002533 0.108963 -0.026696
		CHANNELS 3 Zrotation Yrotation Xrotation
		JOINT Spine1
		{
			OFFSET 0.005487 0.135180 0.001092
			CHANNELS 3 Zrotation Yrotation Xrotation
			JOINT Spine2
			{
				OFFSET 0.001457 0.052922 0.025425
				CHANNELS 3 Zrotation Yrotation Xrotation
				JOINT Neck
				{
					OFFSET -0.002778 0.213870 -0.042857
					CHANNELS 3 Zrotation Yrotation Xrotation
					JOINT Head
					{
						OFFSET 0.005152 0.064970 0.051349
						CHANNELS 3 Zrotation Yrotation Xrotation
						End Site
						{
							OFFSET 0.000000 0.000000 0.000000
						}
					}
				}
				JOINT LeftShoulder
				{
					OFFSET 0.078845 0.121749 -0.034090
					CHANNELS 3 Zrotation Yrotation Xrotation
					JOINT LeftArm
					{
						OFFSET 0.090977 0.030469 -0.008868
						CHANNELS 3 Zrotation Yrotation Xrotation
						JOINT LeftForeArm
						{
							OFFSET 0.259612 -0.012772 -0.027456
							CHANNELS 3 Zrotation Yrotation Xrotation
							JOINT LeftHand
							{
								OFFSET 0.249234 0.008986 -0.001171
								CHANNELS 3 Zrotation Yrotation Xrotation
								End Site
								{
									OFFSET 0.000000 0.000000 0.000000
								}
							}
						}
					}
				}
				JOINT RightShoulder
				{
					OFFSET -0.081759 0.118833 -0.038615
					CHANNELS 3 Zrotation Yrotation Xrotation
					JOINT RightArm
					{
						OFFSET -0.096012 0.032551 -0.009143
						CHANNELS 3 Zrotation Yrotation Xrotation
						JOINT RightForeArm
						{
							OFFSET -0.253742 -0.013329 -0.021401
							CHANNELS 3 Zrotation Yrotation Xrotation
							JOINT RightHand
							{
								OFFSET -0.255298 0.007772 -0.005559
								CHANNELS 3 Zrotation Yrotation Xrotation
								End Site
								{
									OFFSET 0.000000 0.000000 0.000000
								}
							}
						}
					}
				}
			}
		}
	}
}
MOTION
Frames: 10
Frame Time: 0.050000
0.000000 0.930547 0.000000 -1.553822 -1.205135 3.326350 -0.219056 -0.066122 -0.744665 0.508456 -0.143262 2.306712 3.166813 6.977469 0.928106 0.000000 0.000000 0.000000 -3.322733 0.611959 -7.010411 0.176321 0.318964 8.494700 -1.898353 -6.346667 4.016655 0.000000 0.000000 0.000000 6.117168 -0.130667 0.121552 -0.990916 0.520429 -3.844462 -2.960876 3.554340 5.787222 5.883870 -2.678471 -12.180968 0.000000 0.000000 0.000000 -5.967649 3.520458 -2.155231 -18.052556 -7.876687 -1.147284 14.730530 -8.630016 -0.844427 0.000000 0.000000 0.000000 5.830421 -9.711396 -4.234907 22.568042 3.856939 -1.745134 -12.122773 18.097365 -0.925422 0.000000 0.000000 0.000000 
-0.000432 0.928866 0.001443 -1.969861 -1.356311 3.676636 0.581047 -0.006107 0.067201 -0.087238 -0.004157 0.425969 3.221420 6.966959 0.495680 0.000000 0.000000 0.000000 -2.990444 0.626753 -7.031899 0.404385 0.261079 8.012603 -1.903875 -6.211679 3.577862 0.000000 0.000000 0.000000 7.271663 -0.178089 0.266022 -1.125936 0.562819 -2.596513 -3.828776 4.727384 3.444186 5.717872 -2.250762 -13.121806 0.000000 0.000000 0.000000 -5.587905 3.302346 -2.107746 -17.622876 -8.587240 -0.910782 13.216822 -7.125015 -0.637977 0.000000 0.000000 0.000000 4.825802 -11.579577 -4.804981 24.553664 2.708120 -1.974694 -13.822815 19.832296 -1.188322 0.000000 0.000000 0.000000 
-0.002080 0.927339 0.003462 -1.617815 -1.710581 3.438939 0.526344 0.011387 0.247500 -0.587705 0.040629 0.894820 3.414012 7.246390 0.043718 0.000000 0.000000 0.000000 -3.665788 0.650940 -7.635154 1.060898 0.209969 9.725981 -1.950609 -6.018345 2.710167 0.000000 0.000000 0.000000 7.608232 -0.199392 0.475581 -1.615498 0.790587 -4.727855 -3.767493 5.206196 5.494059 5.750045 -2.304558 -13.043168 0.000000 0.000000 0.000000 -5.186031 3.981390 -2.287460 -17.791413 -9.709952 -0.879036 13.930253 -5.443329 -0.536964 0.000000 0.000000 0.000000 5.491146 -11.758642 -4.965915 24.325188 3.661664 -1.926940 -15.593437 20.282616 -1.462064 0.000000 0.000000 0.000000 
-0.005098 0.926107 0.006034 -1.573250 -1.855529 3.321968 0.794905 0.051842 0.778638 -0.836207 0.079609 0.545948 3.493637 7.328532 -0.271977 0.000000 0.000000 0.000000 -3.637089 0.642990 -7.509216 1.252798 0.186607 10.039120 -2.015655 -5.915519 2.020240 0.000000 0.000000 0.000000 7.466782 -0.150572 0.086264 -1.325075 0.658046 -3.766855 -3.971165 5.091788 4.411778 4.964092 -1.849765 -12.615191 0.000000 0.000000 0.000000 -5.338159 4.852220 -2.644011 -18.044084 -10.227113 -0.789738 14.776031 -4.359215 -0.476427 0.000000 0.000000 0.000000 5.138350 -12.523828 -5.228897 23.991282 3.727795 -1.827397 -15.932105 21.631523 -1.646738 0.000000 0.000000 0.000000 
-0.009952 0.925885 0.008918 -1.415109 -1.749855 2.844451 0.833836 0.097450 1.312095 -0.596247 0.042441 0.872252 3.462296 7.249702 -0.306397 0.000000 0.000000 0.000000 -3.669617 0.576358 -6.642005 1.595645 0.113075 9.825375 -2.091099 -5.912904 1.554463 0.000000 0.000000 0.000000 7.355868 -0.120238 -0.067061 -1.080994 0.553007 -3.708778 -3.969105 4.752893 4.025127 5.330237 -2.249686 -11.695643 0.000000 0.000000 0.000000 -5.835848 4.913677 -2.751858 -17.831009 -10.387221 -0.757287 14.963633 -4.434274 -0.484944 0.000000 0.000000 0.000000 5.299624 -12.783951 -5.365685 23.632633 3.491644 -1.814928 -17.073450 24.743155 -2.180219 0.000000 0.000000 0.000000 
-0.016639 0.925283 0.011569 -1.451472 -1.836286 2.593822 0.897813 0.117690 1.561554 0.139966 -0.060254 1.301896 3.588509 7.471813 -0.472232 0.000000 0.000000 0.000000 -3.403309 0.547967 -6.178573 1.974846 0.043094 9.830803 -2.135639 -5.787348 0.953555 0.000000 0.000000 0.000000 6.912441 -0.072064 -0.410990 -0.698402 0.375119 -2.984488 -3.897626 4.676740 3.643299 5.240251 -2.291888 -11.064742 0.000000 0.000000 0.000000 -5.753826 5.413383 -2.920132 -18.500251 -11.066597 -0.684393 15.912646 -4.714545 -0.558465 0.000000 0.000000 0.000000 5.203126 -12.783175 -5.351228 24.381720 3.202148 -1.879397 -18.427555 27.304939 -2.745998 0.000000 0.000000 0.000000 
-0.024903 0.925315 0.013352 -1.362485 -2.324972 2.428290 1.310529 0.112233 1.611289 0.085955 -0.072668 1.885701 3.763979 7.927710 -0.202788 0.000000 0.000000 0.000000 -3.044854 0.537745 -5.930567 2.063307 0.035833 9.850219 -2.038087 -5.339768 0.440960 0.000000 0.000000 0.000000 6.954222 -0.045340 -0.609688 -0.637423 0.343618 -2.967394 -4.199194 4.686299 3.868242 5.436903 -2.416724 -11.225518 0.000000 0.000000 0.000000 -6.207475 5.603701 -3.071805 -18.635401 -10.493031 -0.764978 16.712640 -6.313607 -0.775390 0.000000 0.000000 0.000000 6.149779 -12.923697 -5.571549 24.023132 2.829068 -1.926834 -18.890992 30.533076 -3.275833 0.000000 0.000000 0.000000 
-0.034484 0.925104 0.014353 -1.290209 -2.332112 2.553814 1.721386 0.088545 1.461842 0.364018 -0.115070 2.066159 3.768187 7.999652 0.044117 0.000000 0.000000 0.000000 -2.053630 0.575363 -6.167273 1.326451 0.187346 10.225782 -2.199153 -5.481567 -0.184876 0.000000 0.000000 0.000000 6.890552 -0.011428 -0.965529 -0.566492 0.307902 -2.685756 -4.209320 4.190425 4.391997 5.371515 -2.465089 -10.965553 0.000000 0.000000 0.000000 -7.326915 5.780178 -3.328741 -19.134052 -9.736356 -0.898965 18.050461 -8.593980 -1.127293 0.000000 0.000000 0.000000 7.486220 -13.007974 -5.860606 24.213063 2.733251 -1.974221 -19.885516 32.979975 -3.923276 0.000000 0.000000 0.000000 
-0.044940 0.924684 0.014607 -1.223659 -2.971640 2.393600 2.200764 0.080585 1.466419 0.454114 -0.146222 2.620141 4.019487 8.604599 0.321804 0.000000 0.000000 0.000000 -1.418949 0.584680 -6.129723 1.215925 0.227611 10.449887 -2.112385 -4.944377 -0.889793 0.000000 0.000000 0.000000 6.947427 -0.014908 -0.869874 -0.801146 0.405712 -2.437030 -4.226720 3.930424 4.984101 4.587596 -1.972278 -11.151418 0.000000 0.000000 0.000000 -8.465291 5.986475 -3.579998 -20.633748 -9.136047 -1.068213 19.240323 -11.475025 -1.592400 0.000000 0.000000 0.000000 8.495988 -12.620712 -5.907785 24.804976 2.353594 -2.089898 -19.195421 35.788371 -4.206960 0.000000 0.000000 0.000000 
-0.055951 0.924854 0.014376 -1.240844 -3.237992 2.483926 2.826327 0.072096 1.547871 0.630406 -0.162037 2.400253 4.057404 8.820464 0.916476 0.000000 0.000000 0.000000 -0.364748 0.622177 -6.309432 0.667240 0.344347 10.607288 -2.127123 -4.793386 -1.289505 0.000000 0.000000 0.000000 7.034441 -0.035700 -0.683236 -0.947735 0.472363 -2.782948 -4.137244 3.692230 5.971883 4.317522 -1.770525 -11.686293 0.000000 0.000000 0.000000 -10.078652 6.071417 -3.874368 -22.417817 -8.104151 -1.338882 19.961816 -15.018063 -2.154201 0.000000 0.000000 0.000000 9.913280 -12.697224 -6.231712 25.509092 2.087554 -2.227298 -17.205478 37.513379 -3.878668 0.000000 0.000000 0.000000 
